Patient4_TMGait_0pt7_01_right_39_GRF.mot
version=1
nRows=58
nColumns=19
inDegrees=no
endheader
time	F1x	F1y	F1z	M1x	M1y	M1z	F2x	F2y	F2z	M2x	M2y	M2z	EC1x	EC1y	EC1z	EC2x	EC2y	EC2z
44.58	20.9193	760.9597	65.5767	-274.4206	-63.6437	835.0598	8.347	-13.2902	-16.981	1.7394	8.6478	-25.2494	-0.0592	0.0182	-0.0073	-0.0462	0.0165	0.9585
44.5916	14.2513	754.8584	67.3473	-272.0074	-66.5718	823.5672	5.366	-7.8557	-11.3782	1.5939	5.8702	-15.6331	-0.0592	0.0182	-0.0073	-0.0462	0.0165	0.9585
44.6031	8.5831	747.3647	68.4833	-268.9934	-68.5578	810.5414	2.906	-3.2696	-6.6635	1.4855	3.5308	-7.5196	-0.0592	0.0182	-0.0073	-0.0462	0.0165	0.9585
44.6147	4.197	738.9478	68.8848	-265.5631	-69.4488	796.7116	1.0393	0.24867	-3.0859	1.4238	1.7659	-1.2998	-0.0592	0.0182	-0.0073	-0.0462	0.0165	0.9585
44.6263	1.1151	730.1287	68.6128	-261.9377	-69.314	782.6833	-0.22756	2.7047	-0.62787	1.4	0.56279	3.0267	-0.0592	0.0182	-0.0073	-0.0462	0.0165	0.9585
44.6379	-0.77858	721.4644	67.8162	-258.3506	-68.3446	769.0434	-1.035	4.2737	0.87712	1.4063	-0.15423	5.7721	-0.0592	0.0182	-0.0073	-0.0462	0.0165	0.9585
44.6494	-1.6021	713.4709	66.6597	-255.0223	-66.7436	756.235	-1.4774	5.1056	1.6593	1.414	-0.51112	7.226	-0.0592	0.0182	-0.0073	-0.0462	0.0165	0.9585
44.661	-1.5036	706.6315	65.291	-252.1513	-64.7001	744.6652	-1.7092	5.3712	1.9214	1.396	-0.59263	7.7271	-0.0592	0.0182	-0.0073	-0.0462	0.0165	0.9585
44.6726	-0.53998	701.3062	63.8104	-249.8851	-62.3296	734.584	-1.8123	5.1423	1.8613	1.3062	-0.49984	7.4426	-0.0592	0.0182	-0.0073	-0.0462	0.0165	0.9585
44.6841	1.207	697.7316	62.2991	-248.3086	-59.73	726.136	-1.8801	4.4552	1.6111	1.0951	-0.28258	6.508	-0.0592	0.0182	-0.0073	-0.0462	0.0165	0.9585
44.6957	3.7364	695.9608	60.8218	-247.4339	-56.9579	719.2738	-1.9169	3.2615	1.2803	0.70438	-0.0028537	4.908	-0.0592	0.0182	-0.0073	-0.0462	0.0165	0.9585
44.7073	7.0252	695.9508	59.4464	-247.2223	-54.0764	713.9348	-1.9492	1.5143	0.93086	0.088303	0.30406	2.6295	-0.0592	0.0182	-0.0073	-0.0462	0.0165	0.9585
44.7189	11.047	697.5242	58.2533	-247.5818	-51.1579	709.9273	-1.9134	-0.82553	0.60658	-0.77779	0.57636	-0.36955	-0.0592	0.0182	-0.0073	-0.0462	0.0165	0.9585
44.7304	15.7093	700.4815	57.3059	-248.4015	-48.2731	707.1083	-1.7539	-3.6972	0.33914	-1.873	0.74994	-4.0057	-0.0592	0.0182	-0.0073	-0.0462	0.0165	0.9585
44.742	20.9209	704.5705	56.6795	-249.5511	-45.5108	705.3056	-1.345	-6.8844	0.16312	-3.1037	0.7297	-8.032	-0.0592	0.0182	-0.0073	-0.0462	0.0165	0.9585
44.7536	26.4715	709.5176	56.4203	-250.8923	-42.9679	704.3899	-0.55565	-9.8669	0.12501	-4.2555	0.39899	-11.7937	-0.0592	0.0182	-0.0073	-0.0462	0.0165	0.9585
44.7651	32.1298	715.0169	56.5644	-252.2863	-40.7524	704.2031	0.78929	-11.7481	0.29845	-4.9581	-0.40114	-14.1962	-0.0592	0.0182	-0.0073	-0.0462	0.0165	0.9585
44.7767	37.5717	720.7837	57.0841	-253.6258	-38.9483	704.6321	2.8117	-11.0873	0.7711	-4.6311	-1.8329	-13.4613	-0.0592	0.0182	-0.0073	-0.0462	0.0165	0.9585
44.7883	42.556	726.5425	57.8941	-254.831	-37.5731	705.5004	5.6087	-5.907	1.6554	-2.4767	-4.0639	-7.1476	-0.0592	0.0182	-0.0073	-0.0462	0.0165	0.9585
44.7999	46.9382	731.9681	58.8333	-255.8188	-36.5386	706.5402	9.0961	6.3207	3.0523	2.5139	-7.178	7.9017	-0.0592	0.0182	-0.0073	-0.0462	0.0165	0.9585
44.8114	50.7923	736.4464	59.6892	-256.4205	-35.6366	707.0923	12.9803	28.4241	5.0335	11.4676	-11.1245	35.207	-0.0592	0.0182	-0.0073	-0.0462	0.0165	0.9585
44.823	54.2739	738.9502	60.2549	-256.3261	-34.6254	706.0996	16.5653	63.09	7.5768	25.4429	-15.5744	78.1413	-0.0592	0.0182	-0.0073	-0.0462	0.0165	0.9585
44.8346	57.6125	737.9155	60.2849	-255.0477	-33.2097	701.9757	18.679	111.9808	10.4867	45.0834	-19.7869	138.8055	-0.0592	0.0182	-0.0073	-0.0462	0.0165	0.9585
44.8461	60.8549	731.3168	59.5338	-251.9367	-31.1509	692.7742	17.504	174.5331	13.293	70.1234	-22.4386	216.584	-0.0592	0.0182	-0.0073	-0.0462	0.0165	0.9585
44.8577	63.8935	716.8099	57.7585	-246.2364	-28.277	676.2955	11.0872	246.5979	15.1913	98.8511	-21.7733	306.425	-0.0592	0.0182	-0.0073	-0.0462	0.0165	0.9585
44.8693	66.362	692.2044	54.7716	-237.2307	-24.5562	650.5944	-1.1071	319.8823	15.0319	127.875	-16.1982	398.0932	-0.0592	0.0182	-0.0073	-0.0462	0.0165	0.9585
44.8809	67.8125	655.9725	50.5217	-224.42	-20.1192	614.3394	-16.1018	384.2152	11.2988	153.0859	-5.2248	478.8051	-0.0592	0.0182	-0.0073	-0.0462	0.0165	0.9585
44.8924	67.7577	607.8776	45.1401	-207.7149	-15.2684	567.4352	-30.2303	433.2757	4.3708	171.955	9.1747	540.3317	-0.0592	0.0182	-0.0073	-0.0462	0.0165	0.9585
44.904	65.85	549.0566	38.9847	-187.4731	-10.4545	511.0122	-41.447	466.6897	-4.6532	184.3647	24.8252	581.8694	-0.0592	0.0182	-0.0073	-0.0462	0.0165	0.9585
44.9156	61.9213	481.8793	32.5512	-164.4566	-6.1693	447.326	-49.2286	488.765	-14.5112	192.0848	39.9689	608.7055	-0.0592	0.0182	-0.0073	-0.0462	0.0165	0.9585
44.9271	56.0099	409.5895	26.2399	-139.7336	-2.7429	379.3988	-53.8364	505.4072	-23.8605	197.5401	53.1821	628.1834	-0.0592	0.0182	-0.0073	-0.0462	0.0165	0.9585
44.9387	48.364	335.9783	20.3673	-114.5739	-0.35366	310.7071	-56.2569	521.8109	-32.1777	202.8595	64.174	646.9013	-0.0592	0.0182	-0.0073	-0.0462	0.0165	0.9585
44.9503	39.5111	264.9794	15.1362	-90.3104	1.0191	244.8061	-57.1639	541.7254	-38.9561	209.5838	72.7089	669.4126	-0.0592	0.0182	-0.0073	-0.0462	0.0165	0.9585
44.9619	30.2808	200.0235	10.7122	-68.1169	1.5339	184.7274	-57.2638	567.3129	-44.6456	218.5495	79.543	698.4038	-0.0592	0.0182	-0.0073	-0.0462	0.0165	0.9585
44.9734	21.5201	143.6294	7.1795	-48.8533	1.4353	132.6736	-56.8747	598.8546	-49.4986	229.8514	85.1758	734.1673	-0.0592	0.0182	-0.0073	-0.0462	0.0165	0.9585
44.985	13.9023	96.9944	4.5002	-32.9398	1.0074	89.6444	-56.4002	634.7998	-54.1848	242.8181	90.4892	774.9217	-0.0592	0.0182	-0.0073	-0.0462	0.0165	0.9585
44.9966	7.7253	60.3361	2.582	-20.4491	0.44392	55.8258	-56.077	672.281	-58.8839	256.3076	95.7985	817.25	-0.0592	0.0182	-0.0073	-0.0462	0.0165	0.9585
45.0081	3.1377	33.11	1.2821	-11.1913	-0.082028	30.7051	-56.1365	708.4305	-63.6787	269.1683	101.2515	857.8167	-0.0592	0.0182	-0.0073	-0.0462	0.0165	0.9585
45.0197	0.079707	14.3104	0.4607	-4.8091	-0.47071	13.4046	-56.5148	740.8409	-68.3067	280.4737	106.5358	893.7383	-0.0592	0.0182	-0.0073	-0.0462	0.0165	0.9585
45.0313	-1.6199	2.5932	-0.017816	-0.83366	-0.67236	2.6451	-57.1701	767.6846	-72.467	289.5336	111.2837	922.9018	-0.0592	0.0182	-0.0073	-0.0462	0.0165	0.9585
45.0429	-2.3845	-3.6779	-0.2397	1.2959	-0.75347	-3.0565	-57.8123	787.5907	-75.947	295.8603	115.1386	943.6804	-0.0592	0.0182	-0.0073	-0.0462	0.0165	0.9585
45.0544	-2.494	-6.1317	-0.2836	2.1324	-0.74811	-5.2475	-58.2943	799.7931	-78.4183	299.2127	117.6881	955.2082	-0.0592	0.0182	-0.0073	-0.0462	0.0165	0.9585
45.066	-2.2758	-6.1842	-0.23283	2.1578	-0.6926	-5.2092	-58.4255	804.1538	-79.8821	299.6	118.8588	957.3392	-0.0592	0.0182	-0.0073	-0.0462	0.0165	0.9585
45.0776	-1.8771	-4.9533	-0.12268	1.7472	-0.62225	-4.0194	-58.1409	801.3038	-80.2877	297.3202	118.6093	950.8443	-0.0592	0.0182	-0.0073	-0.0462	0.0165	0.9585
45.0891	-1.4704	-3.1859	-0.0069338	1.1527	-0.55277	-2.3374	-57.4202	792.3289	-79.8975	292.8515	117.2392	936.9834	-0.0592	0.0182	-0.0073	-0.0462	0.0165	0.9585
45.1007	-1.077	-1.4046	0.11353	0.54527	-0.50417	-0.68034	-56.2926	778.8594	-78.8052	286.867	114.9137	917.6435	-0.0592	0.0182	-0.0073	-0.0462	0.0165	0.9585
45.1123	-0.77746	0.15218	0.20233	0.007228	-0.47007	0.76739	-54.7691	762.6793	-77.2368	280.096	111.9081	894.8406	-0.0592	0.0182	-0.0073	-0.0462	0.0165	0.9585
45.1239	-0.5241	1.3474	0.27693	-0.41856	-0.4582	1.8624	-52.8793	745.7016	-75.2326	273.2987	108.3099	870.7132	-0.0592	0.0182	-0.0073	-0.0462	0.0165	0.9585
45.1354	-0.3675	2.1996	0.32034	-0.73169	-0.45879	2.6607	-50.5217	729.6293	-72.9038	267.1391	104.2228	847.1032	-0.0592	0.0182	-0.0073	-0.0462	0.0165	0.9585
45.147	-0.24474	2.7597	0.35022	-0.94368	-0.46519	3.1663	-47.6176	715.8083	-70.2999	262.1388	99.6749	825.4433	-0.0592	0.0182	-0.0073	-0.0462	0.0165	0.9585
45.1586	-0.19749	3.1066	0.36412	-1.0779	-0.48075	3.4916	-43.9434	705.2814	-67.4894	258.6856	94.661	806.7662	-0.0592	0.0182	-0.0073	-0.0462	0.0165	0.9585
45.1701	-0.17737	3.2879	0.3744	-1.1549	-0.50114	3.6498	-39.3168	698.8027	-64.5947	257.0475	89.2239	791.8078	-0.0592	0.0182	-0.0073	-0.0462	0.0165	0.9585
45.1817	-0.224	3.375	0.38216	-1.1945	-0.5371	3.7523	-33.5537	696.9064	-61.6766	257.3999	83.3557	781.0717	-0.0592	0.0182	-0.0073	-0.0462	0.0165	0.9585
45.1933	-0.28907	3.3697	0.39317	-1.1997	-0.58208	3.7526	-26.6361	699.9238	-58.8779	259.8196	77.1828	774.9347	-0.0592	0.0182	-0.0073	-0.0462	0.0165	0.9585
45.2049	-0.41999	3.3015	0.41419	-1.1749	-0.65655	3.6976	-18.7067	707.7622	-56.2528	264.2145	70.809	773.405	-0.0592	0.0182	-0.0073	-0.0462	0.0165	0.9585
45.2164	-0.56333	3.1059	0.45279	-1.1003	-0.75641	3.4792	-10.1123	719.7464	-53.984	270.2463	64.5331	775.9768	-0.0592	0.0182	-0.0073	-0.0462	0.0165	0.9585
45.228	-0.76323	2.7466	0.50774	-0.95968	-0.8949	3.0731	-1.3104	734.5628	-52.2142	277.3274	58.6618	781.5212	-0.0592	0.0182	-0.0073	-0.0462	0.0165	0.9585
45.2396	-0.97215	2.113	0.58508	-0.71996	-1.0648	2.3143	7.1776	750.4474	-51.1316	284.6988	53.57	788.4939	-0.0592	0.0182	-0.0073	-0.0462	0.0165	0.9585
